<?xml version="1.0" encoding="UTF-8"?><svg id="Layer_1" xmlns="http://www.w3.org/2000/svg" viewBox="0 0 328.55 373.76"><defs><style>.cls-1{fill:#fff;}</style></defs><path class="cls-1" d="M7.79,369.58c.12.41.32.76.61,1.05.29.29.67.5,1.14.65.47.15,1.05.22,1.74.22,1.28,0,2.19-.24,2.73-.73.54-.49.81-1.21.81-2.16,0-.49-.1-.9-.29-1.26-.19-.35-.44-.66-.74-.93-.3-.26-.64-.49-1.03-.68-.38-.19-.77-.38-1.15-.55l-2.38-1.06c-.68-.31-1.28-.63-1.8-.96s-.96-.71-1.31-1.12c-.35-.42-.62-.89-.79-1.4-.18-.51-.26-1.12-.26-1.81s.12-1.38.35-1.98c.24-.6.59-1.11,1.07-1.53.48-.43,1.08-.76,1.82-.99.74-.24,1.61-.35,2.63-.35s1.97.12,2.73.35,1.37.57,1.84,1.01c.47.44.82.98,1.04,1.61s.33,1.35.33,2.14v.53h-2.71v-.51c0-.4-.06-.77-.17-1.13-.11-.35-.29-.66-.55-.92-.26-.26-.59-.46-.99-.62-.4-.16-.89-.23-1.47-.23-1.16,0-1.99.24-2.48.71-.49.47-.74,1.1-.74,1.9,0,.5.09.93.26,1.29.18.36.42.68.74.96.32.28.7.53,1.15.76.45.23.95.45,1.49.67l2.07.86c.59.25,1.13.53,1.63.83.5.3.93.65,1.28,1.04s.63.83.83,1.33c.2.5.3,1.08.3,1.74,0,1.79-.49,3.15-1.46,4.06s-2.57,1.37-4.79,1.37c-1.27,0-2.31-.15-3.12-.44-.82-.29-1.46-.7-1.94-1.2-.48-.51-.81-1.1-1-1.79-.19-.68-.29-1.42-.29-2.2v-.82h2.71v.86c0,.53.06,1,.18,1.41Z"/><path class="cls-1" d="M34.52,367.4c0,2.16-.58,3.76-1.75,4.8s-2.83,1.56-4.98,1.56-3.81-.52-4.99-1.56-1.77-2.64-1.77-4.8v-7.06c0-2.16.59-3.76,1.77-4.8,1.18-1.04,2.84-1.56,4.99-1.56s3.81.52,4.98,1.56c1.17,1.04,1.75,2.64,1.75,4.8v7.06ZM23.77,367.35c0,.62.07,1.18.2,1.69s.35.95.66,1.31.72.65,1.24.86,1.15.31,1.92.31,1.4-.1,1.91-.31c.51-.21.92-.49,1.22-.86.31-.37.53-.81.66-1.31.13-.51.2-1.07.2-1.69v-6.97c0-.62-.07-1.18-.2-1.69-.13-.51-.35-.95-.66-1.31-.31-.37-.72-.65-1.22-.86-.51-.21-1.14-.31-1.91-.31s-1.41.1-1.92.31-.93.49-1.24.86c-.31.37-.53.81-.66,1.31s-.2,1.07-.2,1.69v6.97Z"/><path class="cls-1" d="M50.21,371.24v2.3h-11.79v-19.33h2.74v17.04h9.05Z"/><path class="cls-1" d="M69.64,373.54h-2.43l-4.39-13.71v13.71h-2.54v-19.33h3l5.14,16.44,5.14-16.44h3v19.33h-2.54v-13.68l-4.39,13.68Z"/><path class="cls-1" d="M81.82,373.54h-2.71l6.36-19.33h2.85l6.36,19.33h-2.71l-1.54-4.86h-7.06l-1.52,4.86ZM86.87,357.51l-2.87,9.07h5.74l-2.87-9.07Z"/><path class="cls-1" d="M103.25,354.2c1.21,0,2.19.16,2.96.49.77.32,1.37.76,1.81,1.3.44.54.75,1.18.92,1.91.17.73.25,1.5.25,2.31,0,.66-.06,1.3-.17,1.92s-.31,1.18-.6,1.69c-.29.51-.67.95-1.16,1.33-.49.38-1.1.67-1.85.86l4.83,7.53h-2.96l-4.72-7.31h-2.74v7.31h-2.71v-19.33h6.14ZM103.16,363.96c.72,0,1.3-.1,1.74-.31s.78-.48,1.03-.83.4-.74.47-1.18c.07-.44.11-.91.11-1.39s-.04-.95-.11-1.4c-.07-.45-.23-.85-.47-1.19s-.58-.62-1.03-.84c-.44-.21-1.02-.32-1.74-.32h-3.33v7.46h3.33Z"/><path class="cls-1" d="M113.03,354.2h2.71v19.33h-2.71v-19.33Z"/><path class="cls-1" d="M122.34,357.73v15.8h-2.6v-19.33h3.18l7.55,15.67v-15.67h2.6v19.33h-3.16l-7.57-15.8Z"/><path class="cls-1" d="M149.8,371.28v2.25h-12.82v-19.33h12.45v2.25h-9.71v5.94h9.36v2.25h-9.36v6.64h10.09Z"/><path class="cls-1" d="M159.6,363.87c0-1.71.11-3.18.33-4.42s.6-2.27,1.14-3.08c.54-.81,1.26-1.41,2.17-1.8.91-.39,2.05-.58,3.42-.58,1.22,0,2.23.18,3.02.54.79.36,1.43.84,1.91,1.43.48.6.83,1.29,1.06,2.07s.39,1.61.47,2.46h-2.74c-.09-1.47-.46-2.55-1.13-3.23-.66-.68-1.54-1.03-2.65-1.03-.82,0-1.51.13-2.05.39s-.98.68-1.31,1.28c-.33.6-.57,1.38-.71,2.36s-.21,2.18-.21,3.61.07,2.7.21,3.67c.14.98.38,1.76.72,2.35.34.59.78,1,1.34,1.25.55.24,1.24.36,2.06.36.54,0,1.05-.09,1.51-.26.46-.18.86-.46,1.2-.85.34-.39.6-.89.79-1.49.19-.6.29-1.33.31-2.18h2.74c-.07.96-.22,1.86-.45,2.71s-.59,1.6-1.08,2.24c-.49.64-1.14,1.15-1.94,1.52-.8.38-1.81.56-3.04.56-1.4,0-2.56-.2-3.48-.6-.92-.4-1.65-1-2.19-1.81-.54-.81-.91-1.83-1.13-3.08-.21-1.24-.32-2.71-.32-4.4Z"/><path class="cls-1" d="M177.83,373.54h-2.71l6.36-19.33h2.85l6.36,19.33h-2.71l-1.54-4.86h-7.06l-1.52,4.86ZM182.88,357.51l-2.87,9.07h5.74l-2.87-9.07Z"/><path class="cls-1" d="M202.51,373.54h-2.43l-4.39-13.71v13.71h-2.54v-19.33h3l5.14,16.44,5.14-16.44h3v19.33h-2.54v-13.68l-4.39,13.68Z"/><path class="cls-1" d="M219.46,354.2c1.21,0,2.19.16,2.96.49.77.32,1.37.76,1.81,1.3.44.54.75,1.18.92,1.91.17.73.25,1.5.25,2.31s-.08,1.56-.25,2.29c-.17.73-.47,1.37-.92,1.92s-1.05.99-1.82,1.32-1.75.5-2.95.5h-3.42v7.31h-2.71v-19.33h6.14ZM219.37,363.96c.72,0,1.3-.1,1.74-.31s.78-.48,1.03-.83c.24-.35.4-.74.47-1.18.07-.44.11-.91.11-1.39s-.04-.95-.11-1.4c-.07-.45-.23-.85-.47-1.19-.24-.35-.58-.62-1.03-.84-.44-.21-1.02-.32-1.74-.32h-3.33v7.46h3.33Z"/><path class="cls-1" d="M228.68,354.2h2.71v19.33h-2.71v-19.33Z"/><path class="cls-1" d="M238,357.73v15.8h-2.6v-19.33h3.18l7.55,15.67v-15.67h2.6v19.33h-3.16l-7.57-15.8Z"/><path class="cls-1" d="M252.52,363.87c0-1.71.11-3.18.33-4.42s.6-2.27,1.14-3.08c.54-.81,1.26-1.41,2.17-1.8.91-.39,2.05-.58,3.42-.58,1.22,0,2.23.18,3.02.54.79.36,1.43.84,1.91,1.43.48.6.83,1.29,1.06,2.07s.39,1.61.47,2.46h-2.74c-.09-1.47-.46-2.55-1.13-3.23-.66-.68-1.54-1.03-2.65-1.03-.82,0-1.51.13-2.05.39-.54.26-.98.68-1.31,1.28-.33.6-.57,1.38-.71,2.36s-.21,2.18-.21,3.61.07,2.7.21,3.67c.14.98.38,1.76.72,2.35.34.59.78,1,1.34,1.25.55.24,1.24.36,2.06.36.54,0,1.06-.09,1.53-.26.48-.18.89-.46,1.24-.85s.62-.89.82-1.49c.2-.6.3-1.33.3-2.18v-1.57h-4.17v-2.27h6.84v3.51c0,1.07-.13,2.06-.39,2.97-.26.9-.66,1.68-1.19,2.33-.54.65-1.21,1.16-2.03,1.52-.82.37-1.78.55-2.9.55-1.4,0-2.56-.2-3.48-.6-.92-.4-1.65-1-2.19-1.81s-.91-1.83-1.13-3.08c-.21-1.24-.32-2.71-.32-4.4Z"/><path class="cls-1" d="M276.58,363.87c0-1.71.11-3.18.33-4.42s.6-2.27,1.14-3.08c.54-.81,1.26-1.41,2.17-1.8.91-.39,2.05-.58,3.42-.58,1.22,0,2.23.18,3.02.54.79.36,1.43.84,1.91,1.43.48.6.83,1.29,1.06,2.07s.39,1.61.47,2.46h-2.74c-.09-1.47-.46-2.55-1.13-3.23-.66-.68-1.54-1.03-2.65-1.03-.82,0-1.51.13-2.05.39-.54.26-.98.68-1.31,1.28-.33.6-.57,1.38-.71,2.36s-.21,2.18-.21,3.61.07,2.7.21,3.67c.14.98.38,1.76.72,2.35.34.59.78,1,1.34,1.25.55.24,1.24.36,2.06.36.54,0,1.05-.09,1.51-.26.46-.18.86-.46,1.2-.85.34-.39.6-.89.79-1.49.19-.6.29-1.33.31-2.18h2.74c-.07.96-.22,1.86-.45,2.71s-.59,1.6-1.08,2.24c-.49.64-1.14,1.15-1.94,1.52-.8.38-1.81.56-3.04.56-1.4,0-2.56-.2-3.48-.6-.92-.4-1.65-1-2.19-1.81s-.91-1.83-1.13-3.08c-.21-1.24-.32-2.71-.32-4.4Z"/><path class="cls-1" d="M294.81,373.54h-2.71l6.36-19.33h2.85l6.36,19.33h-2.71l-1.54-4.86h-7.06l-1.52,4.86ZM299.86,357.51l-2.87,9.07h5.74l-2.87-9.07Z"/><path class="cls-1" d="M316.24,354.2c1.21,0,2.19.16,2.96.49.77.32,1.37.76,1.81,1.3.44.54.75,1.18.92,1.91.17.73.25,1.5.25,2.31,0,.66-.05,1.3-.17,1.92s-.31,1.18-.6,1.69c-.29.51-.67.95-1.16,1.33s-1.1.67-1.85.86l4.83,7.53h-2.96l-4.72-7.31h-2.74v7.31h-2.71v-19.33h6.14ZM316.15,363.96c.72,0,1.3-.1,1.74-.31s.78-.48,1.03-.83c.24-.35.4-.74.47-1.18.07-.44.11-.91.11-1.39s-.04-.95-.11-1.4c-.07-.45-.23-.85-.47-1.19-.24-.35-.58-.62-1.03-.84-.44-.21-1.02-.32-1.74-.32h-3.33v7.46h3.33Z"/><path class="cls-1" d="M0,306.03h20.74v-3.83c-2.72-1.28-4.99-3.05-6.49-4.94-2.44,3.16-7.15,5.77-11.98,6.27v-6.32c5.27-1,8.32-4.27,8.32-9.2v-1.5h7.76v1.5c0,4.93,2.66,7.98,6.32,9.2,3.6-1.22,6.32-4.27,6.32-9.2v-1.5h7.76v1.5c0,4.93,3.05,8.21,8.32,9.2v6.32c-4.82-.5-9.54-3.1-11.98-6.27-1.5,1.89-3.83,3.66-6.49,4.88v3.88h20.74v5.93H0v-5.93ZM3.6,322.34h34.49v-2.11H3.6v-5.6h42.14v13.09H11.26v2.38h35.6v5.6H3.6v-13.36Z"/><path class="cls-1" d="M54.07,287.79h29.39v44.36h-29.39v-44.36ZM75.91,325.83v-31.72h-14.31v31.72h14.31ZM89.22,286.4h7.54v17.69h6.65v6.77h-6.65v25.06h-7.54v-49.52Z"/><path class="cls-1" d="M106.47,298.55h21.79v-5.71h-21.79v-5.88h29.33v17.3h-21.79v6.21h26.23v5.88h-33.77v-17.8ZM110.07,320.17h7.54v9.32h34.6v6.21h-42.14v-15.53ZM143.56,286.4h7.54v36.82h-7.54v-36.82Z"/><path class="cls-1" d="M173.01,307.59c5.05-.39,9.09-2.22,11.81-5.05h-11.64v-5.88h15.08c.33-1.17.5-2.38.55-3.72h-15.53v-5.99h23.01v5.05c0,12.7-10.76,20.57-23.29,21.57v-5.99ZM177.72,315.18h41.59v20.52h-41.59v-20.52ZM211.77,329.71v-8.54h-26.5v8.54h26.5ZM199.85,286.68h7.1v9.37h5.27v-9.65h7.1v26.84h-7.1v-10.42h-5.27v10.42h-7.1v-26.56Z"/><path class="cls-1" d="M224.41,305.65h5.32v-12.7h-4.77v-5.99h33.94v5.99h-4.66v12.7h5.21v5.99h-35.04v-5.99ZM241.66,335.92c-7.99,0-12.92-3.99-12.92-10.37s4.94-10.37,12.92-10.37h17.41c7.98,0,12.92,3.99,12.92,10.37s-4.94,10.37-12.92,10.37h-17.41ZM258.57,329.93c3.6,0,5.88-1.72,5.88-4.38s-2.27-4.38-5.88-4.38h-16.41c-3.6,0-5.88,1.72-5.88,4.38s2.27,4.38,5.88,4.38h16.41ZM246.7,305.65v-12.7h-9.43v12.7h9.43ZM263.34,286.4h7.54v27.61h-7.54v-27.61Z"/><path class="cls-1" d="M278.37,326.11c7.71-1.83,14.31-7.1,18.08-15.36h-17.91v-6.21h20.07c.78-3.16,1.22-6.65,1.22-10.42h-21.18v-6.32h28.83v5.1c0,20.79-12.2,37.04-29.11,39.81v-6.6ZM314.35,286.4h7.54v17.69h6.65v6.77h-6.65v25.06h-7.54v-49.52Z"/><path class="cls-1" d="M262.68,84.19c-.41,0-.79-.28-.91-.7-.13-.5.16-1.02.67-1.15l9.59-2.57c.49-.14,1.02.16,1.15.67.13.5-.16,1.02-.67,1.15l-9.59,2.57c-.08.02-.16.03-.24.03Z"/><path class="cls-1" d="M281.65,121.72h-6.82c-.52,0-.94-.42-.94-.94s.42-.94.94-.94h6.82c.52,0,.94.42.94.94s-.42.94-.94.94Z"/><path class="cls-1" d="M164.19,257.33c-57.94,0-105.08-47.14-105.08-105.08,0-7.88.81-17.65,2.22-26.81,5.02-32.6,23.98-59.92,24.17-60.19l1.93,1.35c-.19.27-18.85,27.16-23.77,59.2-1.39,9.04-2.19,18.68-2.19,26.45,0,56.65,46.09,102.73,102.73,102.73s102.73-46.09,102.73-102.73h2.35c0,57.94-47.14,105.08-105.08,105.08Z"/><path class="cls-1" d="M105.09,154.79c-31.67-60.14-.11-92.36.21-92.68l1.65,1.67c-.31.31-30.61,31.39.21,89.91l-2.08,1.1Z"/><path class="cls-1" d="M268.1,154.57c-2.86,0-4.36-1.49-5.57-2.69-1.13-1.12-2.03-2.01-3.92-2.01s-2.78.89-3.92,2.01c-1.21,1.2-2.72,2.69-5.57,2.69s-4.36-1.49-5.57-2.69c-1.13-1.12-2.02-2.01-3.91-2.01s-2.78.89-3.91,2.01c-1.21,1.2-2.71,2.69-5.57,2.69s-4.36-1.49-5.56-2.69c-1.13-1.12-2.02-2.01-3.91-2.01s-2.78.89-3.91,2.01c-1.21,1.2-2.71,2.69-5.57,2.69s-4.36-1.49-5.57-2.69c-1.13-1.12-2.02-2.01-3.91-2.01s-2.78.89-3.91,2.01c-1.21,1.2-2.71,2.69-5.57,2.69s-4.35-1.49-5.56-2.69c-1.13-1.12-2.02-2.01-3.9-2.01s-2.77.89-3.9,2.01c-1.21,1.2-2.71,2.69-5.56,2.69s-4.36-1.49-5.56-2.69c-1.13-1.12-2.02-2.01-3.91-2.01-.65,0-1.18-.53-1.18-1.18s.53-1.18,1.18-1.18c2.85,0,4.36,1.49,5.56,2.69,1.13,1.12,2.02,2.01,3.91,2.01s2.77-.89,3.9-2.01c1.21-1.2,2.71-2.69,5.56-2.69s4.35,1.49,5.56,2.69c1.13,1.12,2.02,2.01,3.9,2.01s2.78-.89,3.91-2.01c1.21-1.2,2.71-2.69,5.57-2.69s4.36,1.49,5.57,2.69c1.13,1.12,2.02,2.01,3.91,2.01s2.78-.89,3.91-2.01c1.21-1.2,2.71-2.69,5.57-2.69s4.36,1.49,5.56,2.69c1.13,1.12,2.02,2.01,3.91,2.01s2.78-.89,3.91-2.01c1.21-1.2,2.71-2.69,5.57-2.69s4.36,1.49,5.57,2.69c1.13,1.12,2.02,2.01,3.91,2.01s2.78-.89,3.92-2.01c1.21-1.2,2.72-2.69,5.57-2.69s4.36,1.49,5.57,2.69c1.13,1.12,2.03,2.01,3.92,2.01.65,0,1.18.53,1.18,1.18s-.53,1.18-1.18,1.18Z"/><path class="cls-1" d="M158.67,111.52h-39.53c-3.72,0-6.74-3.03-6.74-6.74s3.03-6.74,6.74-6.74h13.91v2.35h-13.91c-2.42,0-4.39,1.97-4.39,4.39s1.97,4.39,4.39,4.39h39.53c2.42,0,4.39-1.97,4.39-4.39s-1.97-4.39-4.39-4.39h-10.63v-2.35h10.63c3.72,0,6.74,3.03,6.74,6.74s-3.03,6.74-6.74,6.74Z"/><path class="cls-1" d="M168.07,100.38h-19.76v-2.35h19.76c2.42,0,4.39-1.97,4.39-4.39s-1.97-4.39-4.39-4.39h-35.37c-2.42,0-4.39,1.97-4.39,4.39s1.97,4.39,4.39,4.39v2.35c-3.72,0-6.74-3.03-6.74-6.74s3.03-6.74,6.74-6.74h35.37c3.72,0,6.74,3.03,6.74,6.74s-3.03,6.74-6.74,6.74Z"/><path class="cls-1" d="M213.86,102.53h-20.5c-2.65,0-4.8-2.15-4.8-4.8s2.15-4.8,4.8-4.8h20.5c2.65,0,4.8,2.15,4.8,4.8s-2.15,4.8-4.8,4.8ZM193.35,95.28c-1.35,0-2.45,1.1-2.45,2.45s1.1,2.45,2.45,2.45h20.5c1.35,0,2.45-1.1,2.45-2.45s-1.1-2.45-2.45-2.45h-20.5Z"/><path class="cls-1" d="M246.93,144.63h-1.6c-.65,0-1.18-.53-1.18-1.18s.53-1.18,1.18-1.18h1.6c.65,0,1.18.53,1.18,1.18s-.53,1.18-1.18,1.18Z"/><path class="cls-1" d="M266.82,144.63h-14.97c-.65,0-1.18-.53-1.18-1.18s.53-1.18,1.18-1.18h14.97c.65,0,1.18.53,1.18,1.18s-.53,1.18-1.18,1.18Z"/><path class="cls-1" d="M257.37,138.67h-16.15c-.65,0-1.18-.53-1.18-1.18s.53-1.18,1.18-1.18h16.15c.65,0,1.18.53,1.18,1.18s-.53,1.18-1.18,1.18Z"/><path class="cls-1" d="M269.9,132.77h-26.02c-.65,0-1.18-.53-1.18-1.18s.53-1.18,1.18-1.18h26.02c.65,0,1.18.53,1.18,1.18s-.53,1.18-1.18,1.18Z"/><path class="cls-1" d="M219.23,178.27h-40.42c-.65,0-1.18-.53-1.18-1.18s.53-1.18,1.18-1.18h40.42c.65,0,1.18.53,1.18,1.18s-.53,1.18-1.18,1.18Z"/><path class="cls-1" d="M166.7,237.15c-.38,0-.74-.18-.97-.51-.37-.54-.23-1.27.31-1.64l1.73-1.18c1.33-.91,3.03-.99,4.43-.2l.52.29c.62.35,1.35.31,1.95-.09,1.33-.91,3.03-.99,4.43-.2l1.96,1.1c.57.32.77,1.03.45,1.6-.32.57-1.04.77-1.6.45l-1.96-1.1c-.62-.35-1.35-.32-1.95.09-1.33.91-3.03.99-4.43.2l-.52-.29c-.62-.35-1.35-.31-1.95.09l-1.73,1.18c-.2.14-.43.2-.66.2Z"/><path class="cls-1" d="M193.1,208.19c-.45,0-.88-.26-1.08-.69-.27-.59,0-1.29.59-1.56l2.64-1.18c1.76-.79,3.91-.85,5.75-.17l.79.29c1.26.47,2.78.42,3.98-.12,1.76-.79,3.91-.86,5.75-.18l2.99,1.1c.61.22.92.9.7,1.51-.22.61-.9.92-1.51.7l-2.99-1.1c-1.25-.46-2.78-.42-3.97.12-1.76.79-3.91.85-5.75.18l-.79-.29c-1.26-.47-2.78-.42-3.98.11l-2.64,1.18c-.16.07-.32.1-.48.1Z"/><path class="cls-1" d="M250.37,178.27h-21.29c-.65,0-1.18-.53-1.18-1.18s.53-1.18,1.18-1.18h21.29c.65,0,1.18.53,1.18,1.18s-.53,1.18-1.18,1.18Z"/><path class="cls-1" d="M75.75,163.91h-14.94c-.65,0-1.18-.53-1.18-1.18s.53-1.18,1.18-1.18h14.94c.65,0,1.18.53,1.18,1.18s-.53,1.18-1.18,1.18Z"/><path class="cls-1" d="M99.81,141.85h-25.71c-.65,0-1.18-.53-1.18-1.18s.53-1.18,1.18-1.18h25.71c.65,0,1.18.53,1.18,1.18s-.53,1.18-1.18,1.18Z"/><path class="cls-1" d="M78.6,116.52h-14.06c-.65,0-1.18-.53-1.18-1.18s.53-1.18,1.18-1.18h14.06c.65,0,1.18.53,1.18,1.18s-.53,1.18-1.18,1.18Z"/><path class="cls-1" d="M92.66,95.04h-14.06c-.65,0-1.18-.53-1.18-1.18s.53-1.18,1.18-1.18h14.06c.65,0,1.18.53,1.18,1.18s-.53,1.18-1.18,1.18Z"/><path class="cls-1" d="M91.51,68.87c-6.69,0-12.13-5.44-12.13-12.13s5.44-12.13,12.13-12.13,12.13,5.44,12.13,12.13-5.44,12.13-12.13,12.13ZM91.51,46.96c-5.39,0-9.78,4.39-9.78,9.78s4.39,9.78,9.78,9.78,9.78-4.39,9.78-9.78-4.39-9.78-9.78-9.78Z"/><path class="cls-1" d="M111.37,65.94c-5.45,0-9.89-4.44-9.89-9.89s4.44-9.89,9.89-9.89,9.89,4.44,9.89,9.89-4.44,9.89-9.89,9.89ZM111.37,48.51c-4.16,0-7.54,3.38-7.54,7.54s3.38,7.54,7.54,7.54,7.54-3.38,7.54-7.54-3.38-7.54-7.54-7.54Z"/><path class="cls-1" d="M40.92,71.73c-.18,0-.36-.04-.53-.13-.5-.25-.75-.82-.61-1.35,8.29-31.17,28.94-39.46,44.11-37.1,12.09,1.89,17.04,9.89,17.24,10.23.33.55.16,1.28-.4,1.61-.55.34-1.28.16-1.62-.4-.04-.07-4.63-7.41-15.59-9.12-13.42-2.1-31.45,4.88-40.06,30.66,6.36-6.16,20.78-17.41,37.41-12.72.62.18.99.83.81,1.45-.18.62-.82.99-1.45.81-20.87-5.88-38.23,15.4-38.4,15.62-.23.29-.57.44-.92.44Z"/><path class="cls-1" d="M91.57,37.5c-.63,0-1.16-.5-1.18-1.14-.65-22.21-28.86-22.15-30.1-22.18h-.01c-.51,0-.96-.33-1.12-.82-.16-.49.02-1.03.44-1.32.42-.29,10.34-7.14,22.64-4.31,9.24,2.12,17.2,9.09,23.66,20.73.32.57.11,1.28-.46,1.6-.57.32-1.28.11-1.6-.46-6.12-11.01-13.55-17.6-22.1-19.57-7.16-1.66-13.58.36-17.33,2.06,8.63.93,27.76,5.14,28.32,24.2.02.65-.49,1.19-1.14,1.21h-.04Z"/><path class="cls-1" d="M104.13,37.5s-.02,0-.03,0c-.65-.01-1.16-.55-1.15-1.2,0-.37,1.25-36.3,36.2-36.3.31,0,.61,0,.92,0,.53,0,.99.37,1.12.88.13.51-.09,1.05-.55,1.31-.22.13-21.99,12.89-19.58,29.92.09.64-.36,1.24-1,1.33-.64.1-1.24-.36-1.33-1-2.03-14.33,10.78-25.4,17.23-30-29.52,2.05-30.62,32.54-30.65,33.9-.02.64-.54,1.15-1.18,1.15Z"/><path class="cls-1" d="M162.56,57.03c-.38,0-.73-.23-.88-.6-.03-.07-2.98-7.42-9.59-12.26-7.93-5.8-23.69-7.79-33.92,5.95-.31.42-.9.5-1.32.19-.42-.31-.5-.9-.19-1.32,11-14.77,27.99-12.6,36.54-6.34,3.82,2.8,6.46,6.3,8.1,8.98-1-6.11-4.97-16.75-20.27-20.13-21.55-4.76-31.4,12.34-31.81,13.07-.25.45-.83.61-1.28.36-.45-.25-.62-.83-.36-1.28.11-.19,10.92-19.06,33.86-13.99,23.04,5.09,22.07,26.27,22.06,26.48-.03.44-.35.8-.79.87-.05,0-.1.01-.15.01Z"/><path class="cls-1" d="M238.3,52.75c-.24,0-.48-.09-.67-.28-.37-.37-.37-.96,0-1.33l7.02-7.02c.37-.37.96-.37,1.33,0s.37.96,0,1.33l-7.02,7.02c-.18.18-.42.28-.67.28Z"/><path class="cls-1" d="M201.47,37.71c-.08,0-.16-.01-.24-.03-.5-.13-.8-.65-.67-1.15l2.57-9.59c.14-.5.66-.79,1.15-.67.5.13.8.65.67,1.15l-2.57,9.59c-.11.42-.49.7-.91.7Z"/><path class="cls-1" d="M166.11,33.83c-.5,0-.92-.4-.94-.91l-.22-5.91c-.02-.52.39-.96.91-.98.46,0,.96.39.98.91l.22,5.91c.02.52-.39.96-.91.98h-.04Z"/><path class="cls-1" d="M91.23,203.58h-6.02c-2.09,0-3.8-1.7-3.8-3.8v-43.77c0-2.09,1.7-3.8,3.8-3.8h75.34c2.09,0,3.8,1.7,3.8,3.8v8.87c0,2.09-1.7,3.8-3.8,3.8h-17.95v-2.35h17.95c.8,0,1.45-.65,1.45-1.45v-8.87c0-.8-.65-1.45-1.45-1.45h-75.34c-.8,0-1.45.65-1.45,1.45v43.77c0,.8.65,1.45,1.45,1.45h6.02v2.35Z"/><rect class="cls-1" x="109.99" y="201.23" width="28.51" height="2.35"/><path class="cls-1" d="M165.29,203.58h-8.03v-2.35h8.03c.8,0,1.45-.65,1.45-1.45v-14.93c0-.8-.65-1.45-1.45-1.45h-22.69v-2.35h22.69c2.09,0,3.8,1.7,3.8,3.8v14.93c0,2.09-1.7,3.8-3.8,3.8Z"/><path class="cls-1" d="M109.9,182.28h-15.55c-1.26,0-2.29-1.03-2.29-2.29v-12.5c0-1.26,1.03-2.29,2.29-2.29h15.55c1.26,0,2.29,1.03,2.29,2.29v12.5c0,1.26-1.03,2.29-2.29,2.29ZM109.84,167.49l-15.49.06.06,12.43,15.42-.06v-12.43Z"/><path class="cls-1" d="M134.07,195.55h-15.37c-1.26,0-2.29-1.03-2.29-2.29v-26.76c0-1.26,1.03-2.29,2.29-2.29h15.37c1.26,0,2.29,1.03,2.29,2.29v26.76c0,1.26-1.03,2.29-2.29,2.29ZM134.01,166.5l-15.3.06.06,26.7,15.24-.06v-26.7Z"/><path class="cls-1" d="M131.34,181.55h-2.63c-.65,0-1.18-.53-1.18-1.18s.53-1.18,1.18-1.18h2.63c.65,0,1.18.53,1.18,1.18s-.53,1.18-1.18,1.18Z"/><path class="cls-1" d="M96.35,161.63h-6.67c-.65,0-1.18-.53-1.18-1.18s.53-1.18,1.18-1.18h6.67c.65,0,1.18.53,1.18,1.18s-.53,1.18-1.18,1.18Z"/><path class="cls-1" d="M102.95,161.63h-.82c-.65,0-1.18-.53-1.18-1.18s.53-1.18,1.18-1.18h.82c.65,0,1.18.53,1.18,1.18s-.53,1.18-1.18,1.18Z"/><rect class="cls-1" x="160.72" y="167.17" width="2.35" height="14.02" transform="translate(-45.59 57.99) rotate(-17.84)"/><rect class="cls-1" x="160.94" y="167.14" width="2.35" height="15.47" transform="translate(-45.78 58.08) rotate(-17.84)"/><rect class="cls-1" x="160.94" y="167.14" width="2.35" height="15.47" transform="translate(-45.78 58.08) rotate(-17.84)"/><path class="cls-1" d="M100.6,216.28c-6.06,0-10.98-4.93-10.98-10.98s4.93-10.98,10.98-10.98,10.98,4.93,10.98,10.98-4.93,10.98-10.98,10.98ZM100.6,196.67c-4.76,0-8.63,3.87-8.63,8.63s3.87,8.63,8.63,8.63,8.63-3.87,8.63-8.63-3.87-8.63-8.63-8.63Z"/><path class="cls-1" d="M147.86,216.28c-6.06,0-10.98-4.93-10.98-10.98s4.93-10.98,10.98-10.98,10.98,4.93,10.98,10.98-4.93,10.98-10.98,10.98ZM147.86,196.67c-4.76,0-8.63,3.87-8.63,8.63s3.87,8.63,8.63,8.63,8.63-3.87,8.63-8.63-3.87-8.63-8.63-8.63Z"/><path class="cls-1" d="M100.6,210.86c-3.07,0-5.57-2.5-5.57-5.57s2.5-5.56,5.57-5.56,5.56,2.5,5.56,5.56-2.5,5.57-5.56,5.57ZM100.6,202.09c-1.77,0-3.21,1.44-3.21,3.21s1.44,3.21,3.21,3.21,3.21-1.44,3.21-3.21-1.44-3.21-3.21-3.21Z"/><path class="cls-1" d="M147.86,210.86c-3.07,0-5.57-2.5-5.57-5.57s2.5-5.56,5.57-5.56,5.56,2.5,5.56,5.56-2.5,5.57-5.56,5.57ZM147.86,202.09c-1.77,0-3.21,1.44-3.21,3.21s1.44,3.21,3.21,3.21,3.21-1.44,3.21-3.21-1.44-3.21-3.21-3.21Z"/><path class="cls-1" d="M111.68,218.23s-.09,0-.14-.01c-14.77-2.37-22.8-.05-22.87-.03-.47.14-.96-.12-1.1-.59-.14-.47.12-.96.59-1.1.34-.1,8.43-2.47,23.66-.03.48.08.81.53.73,1.01-.07.43-.44.74-.87.74Z"/><path class="cls-1" d="M156.89,217.66s-.09,0-.14-.01c-10.95-1.76-16.89-.04-16.95-.03-.46.14-.96-.13-1.1-.59s.12-.96.59-1.1c.25-.08,6.34-1.86,17.74-.03.48.08.81.53.73,1.01-.07.43-.44.74-.87.74Z"/><polygon class="cls-1" points="191.31 128.17 190.13 126.14 200.45 120.12 211.45 120.12 211.45 122.89 201.21 122.89 200.78 122.65 191.31 128.17"/><rect class="cls-1" x="171.08" y="136.29" width="24.69" height="2.35"/><rect class="cls-1" x="224.4" y="136.29" width="11.54" height="2.35"/><rect class="cls-1" x="165.01" y="142.93" width="69.4" height="2.35"/><path class="cls-1" d="M176.78,152.85c-.54-.27-7.24-3.8-7.24-3.8l-5.26-3.44c-.72-.47-1.18-1.2-1.25-2-.07-.77.23-1.52.81-2.08,1.32-1.25,2.54-2.29,3.86-3.27,3.68-2.74,7.92-5.28,12.96-7.77l7.79-3.84c.48-.39,1.35-.67,2.26-.67h11.59c2.03,0,3.68,1.4,3.68,3.13v.52l-.39.35c-.82.74-1.71,1.61-2.38,2.33h30.77c2.03,0,3.68,1.4,3.68,3.13l-1.94,11.66c-.12,2-2.28,3.66-4.9,3.66h-7.77v-2.35h7.77c1.47,0,2.52-.81,2.57-1.57l1.94-11.58c-.02-.17-.58-.59-1.34-.59h-32.65c-.74,0-1.17-.45-1.33-.87-.22-.58-.53-1.37,3.45-5.05-.22-.23-.65-.42-1.16-.42h-11.59c-.39,0-.77.11-1.03.31l-7.99,3.96c-4.92,2.43-9.04,4.89-12.6,7.55-1.24.93-2.4,1.91-3.65,3.09-.08.22-.03.31.11.41l5.16,3.38h0s6.57,3.45,7.1,3.71l-1.05,2.11Z"/><path class="cls-1" d="M214.32,134.66v-2.35c9.46-.03,12.05-3.67,12.08-3.71l1.97,1.28c-.12.19-3.15,4.74-14.05,4.78Z"/><path class="cls-1" d="M170.34,49.12c.07.15.17.27.3.36.14.09.31.16.52.2.21.04.47.04.77.02.56-.04.94-.16,1.17-.36.22-.2.32-.47.3-.82-.01-.18-.06-.33-.16-.46-.09-.13-.21-.23-.35-.32-.14-.09-.3-.16-.47-.22-.17-.06-.35-.11-.53-.17-.44-.12-.66-.18-1.1-.3-.31-.09-.6-.18-.84-.28-.25-.1-.46-.22-.64-.35-.18-.14-.32-.3-.42-.48-.1-.18-.17-.4-.2-.65-.03-.27,0-.52.08-.75.08-.23.23-.44.44-.62.21-.18.48-.33.81-.45.34-.12.74-.2,1.22-.24.5-.04.92-.03,1.28.04.36.06.65.17.88.32.23.15.4.34.51.57s.18.49.19.79c0,.08,0,.12,0,.2-.49.03-.74.04-1.24.07,0-.08,0-.11-.01-.19,0-.15-.04-.28-.1-.41-.06-.13-.15-.23-.28-.32-.13-.09-.28-.15-.48-.2-.19-.04-.42-.05-.69-.03-.54.04-.92.17-1.13.36-.21.2-.3.44-.27.73.02.18.07.34.17.46.09.13.22.23.37.32.15.09.34.17.55.23.21.07.44.13.69.19.38.1.58.15.96.25.27.07.52.16.75.26.23.1.43.22.59.35.17.14.3.29.39.48s.15.39.16.64c.03.67-.16,1.18-.56,1.54-.4.36-1.07.57-2.03.65-.54.04-1,.03-1.36-.04-.36-.08-.66-.19-.89-.36-.23-.17-.4-.37-.51-.61-.11-.24-.18-.51-.22-.8-.01-.12-.02-.18-.03-.3.48-.05.72-.08,1.21-.13.01.13.02.19.03.32.02.2.06.37.13.51Z"/><path class="cls-1" d="M181.98,47.96c-.03.8-.31,1.38-.81,1.76-.51.37-1.21.55-2.13.54-.91,0-1.62-.18-2.13-.56-.51-.37-.79-.96-.81-1.76-.03-1.05-.05-1.57-.08-2.62-.02-.8.23-1.41.76-1.8.53-.4,1.3-.6,2.3-.6.99,0,1.75.22,2.28.62.52.4.76,1.01.73,1.81-.04,1.05-.06,1.57-.1,2.62ZM177.3,47.89c0,.23.04.44.1.63.06.19.16.35.29.48.13.14.31.24.54.31.22.08.5.11.82.11.33,0,.6-.03.82-.11.22-.07.4-.18.53-.31.14-.13.24-.29.3-.48.06-.19.1-.4.1-.62.03-1.04.04-1.55.07-2.59,0-.23-.02-.44-.07-.63-.05-.19-.15-.35-.29-.49-.14-.14-.32-.25-.55-.33-.23-.08-.52-.12-.87-.12-.35,0-.64.04-.88.12-.24.08-.42.19-.56.32-.14.14-.24.3-.3.49-.06.19-.08.4-.08.63.02,1.04.02,1.55.04,2.59Z"/><path class="cls-1" d="M188.56,49.9c-.04.34-.06.51-.1.85-1.95-.23-2.94-.32-4.92-.43.17-2.87.25-4.3.42-7.16.5.03.75.05,1.25.08-.18,2.52-.28,3.78-.46,6.31,1.53.11,2.29.18,3.81.36Z"/><path class="cls-1" d="M196.4,52.07c-.39-.09-.59-.13-.98-.21-.3-2.14-.47-3.21-.87-5.35-.37,2-.55,3-.92,5-.41-.08-.62-.11-1.04-.18.48-2.83.72-4.25,1.2-7.08.53.09.8.14,1.33.24.46,2.57.66,3.85,1,6.42,1.35-2.21,2.05-3.3,3.51-5.47.52.12.78.19,1.3.32-.71,2.78-1.06,4.17-1.77,6.96-.4-.1-.61-.15-1.01-.25.48-1.98.71-2.96,1.19-4.94-1.22,1.8-1.81,2.7-2.95,4.53Z"/><path class="cls-1" d="M201.26,53.29c-.43-.12-.64-.18-1.07-.3,1.75-2.5,2.66-3.74,4.57-6.16.48.15.73.22,1.21.37.21,3.08.27,4.61.3,7.67-.42-.15-.63-.22-1.05-.36,0-.76-.02-1.15-.04-1.91-1.12-.37-1.68-.54-2.82-.87-.45.62-.67.93-1.1,1.56ZM205,48.19c-.88,1.14-1.31,1.71-2.15,2.87.93.27,1.39.42,2.31.71-.05-1.43-.08-2.15-.16-3.58Z"/><path class="cls-1" d="M212.19,49.43c.49.2.87.42,1.14.66.26.24.45.49.54.75.1.26.13.53.09.81-.04.28-.12.55-.24.83-.1.23-.21.43-.35.63-.13.19-.29.35-.48.48-.19.13-.4.21-.64.26-.24.05-.52.05-.84,0,.33,1.34.48,2.01.75,3.35-.44-.19-.66-.29-1.1-.47-.29-1.3-.44-1.95-.78-3.25-.43-.17-.64-.25-1.07-.42-.38,1.01-.58,1.52-.96,2.54-.41-.16-.62-.23-1.04-.39.98-2.7,1.47-4.05,2.46-6.74,1.02.37,1.53.57,2.53.97ZM210.82,52.78c.28.11.53.17.73.17.2,0,.37-.04.52-.12.14-.08.26-.19.35-.33.09-.14.17-.29.24-.46.07-.17.12-.33.16-.5s.03-.33-.02-.49c-.05-.16-.15-.31-.3-.46-.15-.15-.37-.28-.66-.4-.54-.22-.81-.32-1.36-.53-.39,1.04-.59,1.55-.98,2.59.53.2.79.3,1.32.51Z"/><path class="cls-1" d="M216.16,51.13c.44.2.65.3,1.08.5-1.22,2.6-1.83,3.9-3.05,6.49-.4-.19-.6-.28-1-.46,1.19-2.61,1.78-3.92,2.97-6.53Z"/><path class="cls-1" d="M219.25,54.08c-1.07,2.09-1.6,3.14-2.66,5.22-.38-.19-.56-.29-.94-.47,1.27-2.57,1.91-3.86,3.18-6.43.5.25.75.37,1.25.63.12,2.68.13,4.01.08,6.64,1.14-2.03,1.71-3.04,2.84-5.07.4.22.6.34.99.57-1.43,2.49-2.15,3.73-3.59,6.21-.44-.26-.66-.38-1.11-.63.07-2.65.07-3.98-.04-6.67Z"/><path class="cls-1" d="M226.58,64.3c-.19.27-.28.41-.47.69-1.7-1.18-2.57-1.74-4.35-2.81,1.48-2.46,2.22-3.69,3.7-6.15,1.87,1.13,2.79,1.72,4.58,2.96-.19.28-.28.41-.47.69-1.39-.96-2.09-1.42-3.53-2.31-.46.75-.7,1.12-1.16,1.87,1.35.84,2.01,1.27,3.32,2.17-.19.28-.28.41-.47.69-1.29-.89-1.95-1.32-3.29-2.15-.52.84-.78,1.26-1.3,2.09,1.4.87,2.09,1.32,3.44,2.26Z"/><path class="cls-1" d="M231.48,64.46c.38-.5.75-.91,1.11-1.22s.72-.51,1.09-.61c.37-.09.76-.08,1.16.06.4.13.84.39,1.3.77.41.34.71.67.89,1,.18.33.28.64.29.95.01.3-.04.6-.16.88-.12.28-.27.56-.45.82-.35-.31-.53-.46-.89-.76.32-.44.46-.85.4-1.23s-.27-.72-.64-1.03c-.28-.23-.54-.38-.78-.45-.24-.07-.49-.07-.74.02-.25.08-.51.25-.78.5-.27.25-.57.58-.9,1-.34.43-.59.81-.77,1.13-.18.32-.28.61-.31.87-.03.26.02.49.14.7.12.21.31.42.57.63.17.14.35.25.54.32.19.07.38.09.58.07.2-.02.4-.09.61-.21.2-.12.41-.3.62-.54.35.29.52.44.86.74-.26.25-.52.46-.8.64-.28.18-.57.29-.88.34-.31.05-.63.02-.97-.08-.34-.1-.69-.31-1.07-.62-.44-.36-.75-.7-.95-1.05-.2-.35-.29-.7-.28-1.07.01-.37.12-.77.33-1.19.21-.42.5-.88.89-1.38Z"/><path class="cls-1" d="M234.95,72.02c-.32-.3-.49-.44-.81-.73,2.67-1.46,4.04-2.16,6.82-3.48.36.34.54.52.9.86-1.2,2.83-1.84,4.23-3.18,6.96-.31-.32-.46-.47-.77-.78.34-.69.5-1.03.83-1.72-.83-.82-1.25-1.22-2.1-2.01-.67.36-1.01.54-1.68.91ZM240.55,69.12c-1.29.63-1.93.95-3.2,1.61.7.65,1.04.98,1.73,1.65.6-1.29.9-1.95,1.47-3.26Z"/><path class="cls-1" d="M241.9,79.16c-.26-.3-.39-.45-.65-.74,1.05-1.88,1.56-2.83,2.55-4.77-1.5,1.38-2.24,2.07-3.74,3.45-.28-.3-.42-.45-.7-.75,2.09-1.97,3.13-2.96,5.21-4.93.36.38.54.58.9.96-1.19,2.32-1.81,3.45-3.09,5.69,2.39-.97,3.61-1.43,6.06-2.3.34.41.51.61.84,1.02-2.23,1.8-3.35,2.7-5.59,4.5-.26-.32-.39-.48-.65-.8,1.57-1.29,2.35-1.94,3.91-3.24-2.05.71-3.06,1.09-5.06,1.88Z"/><path class="cls-1" d="M251.97,80.31c.31.43.52.82.61,1.16.1.34.12.65.06.93-.06.27-.17.52-.36.73-.18.21-.4.41-.64.58-.24.17-.5.3-.76.39-.26.09-.53.12-.81.09-.27-.04-.56-.15-.84-.35-.29-.19-.58-.49-.87-.9-.34-.46-.51-.69-.86-1.15-.87.65-1.3.98-2.16,1.63-.27-.35-.4-.53-.67-.87,2.27-1.76,3.4-2.64,5.67-4.4.66.85.99,1.29,1.63,2.16ZM249.03,82.41c.18.25.36.42.53.53.17.11.34.17.5.18.16,0,.32-.02.47-.09.15-.07.3-.15.45-.26.15-.1.28-.22.4-.34s.2-.26.24-.42c.04-.16.04-.34,0-.54-.05-.2-.16-.43-.35-.69-.34-.47-.52-.7-.87-1.17-.88.67-1.33,1-2.21,1.67.34.45.51.68.84,1.13Z"/><path class="cls-1" d="M254.3,83.65c.27.4.4.6.66,1.01-2.41,1.55-3.62,2.33-6.03,3.88-.24-.37-.36-.56-.61-.93,2.39-1.59,3.59-2.38,5.98-3.96Z"/><path class="cls-1" d="M255.38,87.81c-2.01,1.21-3.02,1.81-5.03,3.01-.22-.37-.33-.55-.55-.91,2.44-1.51,3.67-2.26,6.11-3.77.3.48.44.72.73,1.21-1.31,2.34-2,3.48-3.44,5.7,2.04-1.12,3.06-1.67,5.1-2.79.22.41.33.61.55,1.02-2.54,1.34-3.81,2.02-6.34,3.36-.24-.46-.37-.69-.61-1.14,1.46-2.22,2.16-3.36,3.49-5.7Z"/><path class="cls-1" d="M256.42,94.41c.57-.29,1.08-.49,1.53-.61.46-.12.87-.14,1.25-.06.37.08.72.27,1.02.57.31.3.59.73.85,1.29.23.5.35.94.38,1.32.02.38-.03.71-.14,1-.12.28-.29.53-.52.74-.23.21-.48.39-.76.55-.19-.44-.28-.66-.48-1.1.48-.26.78-.57.9-.94.11-.37.07-.78-.14-1.23-.15-.33-.33-.59-.52-.76-.19-.18-.42-.28-.68-.32-.26-.04-.57,0-.92.1-.35.1-.77.27-1.24.51-.49.24-.89.47-1.19.68-.3.21-.52.43-.65.65-.14.22-.19.46-.18.7.02.25.1.52.24.83.1.21.21.39.36.54.14.15.31.27.5.34s.41.1.64.09c.24-.01.5-.08.79-.21.21-.09.32-.14.53-.23-.29-.66-.44-.98-.74-1.63.31-.14.46-.21.76-.36.5,1.07.74,1.61,1.2,2.71-.48.2-.72.31-1.2.51-.37.16-.73.25-1.08.28-.35.03-.68,0-.99-.12-.31-.11-.59-.29-.86-.55-.26-.25-.49-.59-.68-1.01-.24-.52-.38-.98-.41-1.39-.03-.41.04-.77.2-1.11s.44-.64.81-.93c.37-.29.84-.57,1.4-.86Z"/><path class="cls-1" d="M260.55,103.93c.6-.22,1.13-.36,1.59-.42.47-.07.88-.04,1.25.09s.68.36.95.71c.27.34.51.81.7,1.41.17.53.24.99.22,1.37-.02.39-.11.71-.26.99-.15.27-.35.5-.6.68-.25.18-.52.33-.82.46-.14-.47-.2-.7-.35-1.17.51-.2.85-.47,1-.83.15-.36.16-.78,0-1.25-.11-.35-.26-.63-.43-.83-.17-.2-.38-.34-.64-.4-.26-.07-.57-.07-.93-.01s-.8.18-1.29.35c-.52.18-.94.36-1.26.53-.32.18-.57.37-.72.58-.16.21-.25.43-.26.68-.01.25.04.54.14.87.07.22.17.41.29.58.12.17.27.3.45.39.18.1.39.15.63.16.24.01.51-.02.81-.11.14.45.2.68.34,1.14-.35.07-.69.1-1.02.09-.33,0-.64-.08-.93-.21-.29-.13-.55-.34-.78-.62-.23-.28-.42-.66-.58-1.15-.18-.56-.26-1.04-.25-1.45.01-.41.12-.77.33-1.09.21-.31.51-.59.91-.84.4-.24.9-.47,1.49-.69Z"/><path class="cls-1" d="M259.45,112.46c-.12-.44-.18-.67-.3-1.11,3.05.26,4.58.44,7.65.9.12.51.18.77.3,1.28-2.54,1.79-3.83,2.64-6.44,4.25-.09-.46-.13-.68-.23-1.14.65-.41.98-.61,1.62-1.03-.26-1.2-.4-1.8-.7-2.98-.76-.08-1.14-.11-1.91-.18ZM265.76,113.17c-1.43-.2-2.14-.29-3.57-.44.24.97.36,1.46.58,2.45,1.21-.78,1.81-1.18,3-2Z"/><path class="cls-1" d="M268.39,120.36c.08.56.09,1.03.02,1.4-.07.37-.2.67-.37.9-.18.23-.39.4-.65.51-.26.11-.54.18-.84.22-.24.03-.48.03-.72,0-.23-.02-.45-.09-.65-.19-.2-.11-.39-.26-.56-.46-.17-.2-.31-.46-.43-.78-.99,1.01-1.49,1.5-2.51,2.46-.06-.51-.09-.77-.15-1.28.97-.95,1.45-1.44,2.4-2.43-.07-.48-.11-.72-.19-1.2-1.07.18-1.6.27-2.67.45-.08-.46-.12-.69-.2-1.15,2.82-.51,4.24-.77,7.06-1.29.2,1.12.3,1.69.47,2.83ZM264.8,120.86c.05.32.12.57.23.76.1.19.23.33.37.42.14.09.3.14.46.16.17.01.34,0,.52-.02s.35-.06.51-.12c.16-.06.3-.15.41-.28.11-.13.19-.3.24-.51.05-.21.05-.49,0-.82-.09-.61-.14-.92-.24-1.53-1.09.18-1.64.27-2.73.46.1.59.15.89.23,1.48Z"/></svg>